<?xml version="1.0" ?><svg viewBox="0 0 512 512" xmlns="http://www.w3.org/2000/svg"><defs><style>.cls-1{fill:#035166;}.cls-2{fill:#3f6db5;}.cls-3{fill:#fff;}</style></defs><g data-name="Layer 3" id="Layer_3"><path class="cls-1" d="M353.34,292.18A68.64,68.64,0,1,0,278.13,193a81.5,81.5,0,0,1,15.16,8.32c15.41,10.71,24.14,24.7,29,35A97.35,97.35,0,0,0,139.2,282.4c0,1.15,0,2.3.07,3.44a68.64,68.64,0,1,0-26.88,131.79H310.52a68.64,68.64,0,0,0,23.33-133.19c0-.68,0-1.36,0-2,0-.45,0-.9,0-1.36l12.53,5.49Z"/></g><g id="Outline"><path class="cls-3" d="M337.91,126.13A7.09,7.09,0,0,0,345,119V96.68a7.09,7.09,0,1,0-14.17,0V119A7.09,7.09,0,0,0,337.91,126.13Z"/><path class="cls-3" d="M466.51,218H444a7.09,7.09,0,1,0,0,14.17h22.55a7.09,7.09,0,1,0,0-14.17Z"/><path class="cls-3" d="M412.9,157.19a7.08,7.08,0,0,0,5-2.08l31.89-31.89a7.09,7.09,0,0,0-10-10l-31.89,31.89a7.09,7.09,0,0,0,5,12.1Z"/><path class="cls-3" d="M417.91,295.06a7.09,7.09,0,1,0-10,10L439.78,337a7.09,7.09,0,0,0,10-10Z"/><path class="cls-3" d="M257.92,155.11a7.09,7.09,0,1,0,10-10L236.05,113.2a7.09,7.09,0,0,0-10,10Z"/><path class="cls-3" d="M412.71,226a75.29,75.29,0,0,0-6.3-30.3,7.09,7.09,0,0,0-13,5.68,61.61,61.61,0,0,1-41.16,84.26,5.58,5.58,0,0,0-.58.18,75.05,75.05,0,0,0-13.15-6.56,104.5,104.5,0,0,0-53-87.08,61.57,61.57,0,0,1,94.95-9.7,7.09,7.09,0,0,0,10-10,75.71,75.71,0,0,0-117.87,13.61,102.09,102.09,0,0,0-37.18-7c-54.49,0-99.24,43-102.89,97.15a75.72,75.72,0,1,0-17.2,149.46H311.52A75.69,75.69,0,0,0,365,296.39,75.64,75.64,0,0,0,412.71,226ZM373.06,350a61.61,61.61,0,0,1-61.54,61.54H115.4A61.54,61.54,0,1,1,137,292.34a9.18,9.18,0,0,0,9.57-8.94c0-49.69,39.9-90.13,89-90.13,46,0,84.52,36.28,88.59,82.06A75.71,75.71,0,0,0,235.8,350,7.09,7.09,0,0,0,250,350a61.54,61.54,0,1,1,123.08,0Z"/></g></svg>